HIERARCHY
ROOT mixamorig:Hips
{
	OFFSET 0.000000 104.274902 0.000000
	CHANNELS 6 Xposition Yposition Zposition Xrotation Yrotation Zrotation
	JOINT mixamorig:Spine
	{
		OFFSET 0.000000 10.181549 0.131524
		CHANNELS 6 Xposition Yposition Zposition Xrotation Yrotation Zrotation
		JOINT mixamorig:Spine1
		{
			OFFSET 0.000000 9.893990 -1.470706
			CHANNELS 3 Xrotation Yrotation Zrotation
			JOINT mixamorig:Spine2
			{
				OFFSET 0.000000 9.220787 -1.370637
				CHANNELS 3 Xrotation Yrotation Zrotation
				JOINT mixamorig:Neck
				{
					OFFSET 0.000000 16.740372 -2.049022
					CHANNELS 6 Xposition Yposition Zposition Xrotation Yrotation Zrotation
					JOINT mixamorig:Head
					{
						OFFSET 0.000000 9.617859 1.684976
						CHANNELS 6 Xposition Yposition Zposition Xrotation Yrotation Zrotation
						JOINT mixamorig:HeadTop_End
						{
							OFFSET 0.000000 22.037384 7.501072
							CHANNELS 6 Xposition Yposition Zposition Xrotation Yrotation Zrotation
							End Site
							{
								OFFSET 0.000000 23.106567 -2.828246
							}
						}
					}
				}
				JOINT mixamorig:RightShoulder
				{
					OFFSET -4.570000 11.014877 -2.160840
					CHANNELS 6 Xposition Yposition Zposition Xrotation Yrotation Zrotation
					JOINT mixamorig:RightArm
					{
						OFFSET -10.592867 -0.524796 -2.232105
						CHANNELS 3 Xrotation Yrotation Zrotation
						JOINT mixamorig:RightForeArm
						{
							OFFSET -27.841497 0.000000 -0.000002
							CHANNELS 3 Xrotation Yrotation Zrotation
							JOINT mixamorig:RightHand
							{
								OFFSET -28.328812 0.000000 -0.000001
								CHANNELS 3 Xrotation Yrotation Zrotation
								JOINT mixamorig:RightHandThumb1
								{
									OFFSET -2.464798 -1.573990 2.681911
									CHANNELS 6 Xposition Yposition Zposition Xrotation Yrotation Zrotation
									JOINT mixamorig:RightHandThumb2
									{
										OFFSET -3.244781 -1.873383 1.873376
										CHANNELS 3 Xrotation Yrotation Zrotation
										JOINT mixamorig:RightHandThumb3
										{
											OFFSET -2.646263 -1.527817 1.527818
											CHANNELS 6 Xposition Yposition Zposition Xrotation Yrotation Zrotation
											JOINT mixamorig:RightHandThumb4
											{
												OFFSET -1.994591 -1.151581 1.151575
												CHANNELS 6 Xposition Yposition Zposition Xrotation Yrotation Zrotation
												End Site
												{
													OFFSET -1.860176 -1.142715 1.365483
												}
											}
										}
									}
								}
								JOINT mixamorig:RightHandIndex1
								{
									OFFSET -9.108299 -0.517883 2.259803
									CHANNELS 6 Xposition Yposition Zposition Xrotation Yrotation Zrotation
									JOINT mixamorig:RightHandIndex2
									{
										OFFSET -3.699997 0.000000 0.000000
										CHANNELS 3 Xrotation Yrotation Zrotation
										JOINT mixamorig:RightHandIndex3
										{
											OFFSET -2.850006 0.000000 0.000000
											CHANNELS 3 Xrotation Yrotation Zrotation
											JOINT mixamorig:RightHandIndex4
											{
												OFFSET -2.772194 0.000000 0.000000
												CHANNELS 3 Xrotation Yrotation Zrotation
												End Site
												{
													OFFSET -2.772202 0.000000 -0.000484
												}
											}
										}
									}
								}
								JOINT mixamorig:RightHandMiddle1
								{
									OFFSET -9.532501 0.000000 -0.000000
									CHANNELS 6 Xposition Yposition Zposition Xrotation Yrotation Zrotation
									JOINT mixamorig:RightHandMiddle2
									{
										OFFSET -3.699997 0.000000 0.000000
										CHANNELS 3 Xrotation Yrotation Zrotation
										JOINT mixamorig:RightHandMiddle3
										{
											OFFSET -2.949997 0.000000 0.000000
											CHANNELS 3 Xrotation Yrotation Zrotation
											JOINT mixamorig:RightHandMiddle4
											{
												OFFSET -2.946594 0.000000 0.000000
												CHANNELS 3 Xrotation Yrotation Zrotation
												End Site
												{
													OFFSET -2.946602 0.000000 -0.000982
												}
											}
										}
									}
								}
								JOINT mixamorig:RightHandRing1
								{
									OFFSET -9.103600 -0.043106 -1.865100
									CHANNELS 6 Xposition Yposition Zposition Xrotation Yrotation Zrotation
									JOINT mixamorig:RightHandRing2
									{
										OFFSET -3.379303 0.000000 0.000000
										CHANNELS 3 Xrotation Yrotation Zrotation
										JOINT mixamorig:RightHandRing3
										{
											OFFSET -2.889694 0.000000 0.000000
											CHANNELS 3 Xrotation Yrotation Zrotation
											JOINT mixamorig:RightHandRing4
											{
												OFFSET -2.638802 0.000000 0.000000
												CHANNELS 3 Xrotation Yrotation Zrotation
												End Site
												{
													OFFSET -2.638802 0.000000 0.004218
												}
											}
										}
									}
								}
								JOINT mixamorig:RightHandPinky1
								{
									OFFSET -8.076698 -0.486725 -3.806299
									CHANNELS 6 Xposition Yposition Zposition Xrotation Yrotation Zrotation
									JOINT mixamorig:RightHandPinky2
									{
										OFFSET -3.600006 0.000000 0.000000
										CHANNELS 3 Xrotation Yrotation Zrotation
										JOINT mixamorig:RightHandPinky3
										{
											OFFSET -2.099998 0.000000 0.000000
											CHANNELS 3 Xrotation Yrotation Zrotation
											JOINT mixamorig:RightHandPinky4
											{
												OFFSET -2.115791 0.000000 0.000000
												CHANNELS 3 Xrotation Yrotation Zrotation
												End Site
												{
													OFFSET -2.115799 0.000000 0.000174
												}
											}
										}
									}
								}
							}
						}
					}
				}
				JOINT mixamorig:LeftShoulder
				{
					OFFSET 4.570400 11.014679 -2.160816
					CHANNELS 6 Xposition Yposition Zposition Xrotation Yrotation Zrotation
					JOINT mixamorig:LeftArm
					{
						OFFSET 10.592373 -0.524597 -2.232116
						CHANNELS 3 Xrotation Yrotation Zrotation
						JOINT mixamorig:LeftForeArm
						{
							OFFSET 27.841488 0.000000 0.000001
							CHANNELS 3 Xrotation Yrotation Zrotation
							JOINT mixamorig:LeftHand
							{
								OFFSET 28.328808 0.000000 -0.000000
								CHANNELS 3 Xrotation Yrotation Zrotation
								JOINT mixamorig:LeftHandThumb1
								{
									OFFSET 2.466103 -1.576202 2.681698
									CHANNELS 6 Xposition Yposition Zposition Xrotation Yrotation Zrotation
									JOINT mixamorig:LeftHandThumb2
									{
										OFFSET 3.243317 -1.872528 1.872530
										CHANNELS 3 Xrotation Yrotation Zrotation
										JOINT mixamorig:LeftHandThumb3
										{
											OFFSET 2.647881 -1.528763 1.528754
											CHANNELS 6 Xposition Yposition Zposition Xrotation Yrotation Zrotation
											JOINT mixamorig:LeftHandThumb4
											{
												OFFSET 1.998924 -1.154083 1.154080
												CHANNELS 6 Xposition Yposition Zposition Xrotation Yrotation Zrotation
												End Site
												{
													OFFSET 1.884041 -1.149155 1.337651
												}
											}
										}
									}
								}
								JOINT mixamorig:LeftHandIndex1
								{
									OFFSET 9.109299 -0.518005 2.259900
									CHANNELS 6 Xposition Yposition Zposition Xrotation Yrotation Zrotation
									JOINT mixamorig:LeftHandIndex2
									{
										OFFSET 3.699997 0.000000 0.000000
										CHANNELS 3 Xrotation Yrotation Zrotation
										JOINT mixamorig:LeftHandIndex3
										{
											OFFSET 2.850006 0.000000 0.000000
											CHANNELS 3 Xrotation Yrotation Zrotation
											JOINT mixamorig:LeftHandIndex4
											{
												OFFSET 2.774895 0.000000 0.000000
												CHANNELS 3 Xrotation Yrotation Zrotation
												End Site
												{
													OFFSET 2.774902 0.000000 -0.000072
												}
											}
										}
									}
								}
								JOINT mixamorig:LeftHandMiddle1
								{
									OFFSET 9.533401 0.000000 0.000000
									CHANNELS 6 Xposition Yposition Zposition Xrotation Yrotation Zrotation
									JOINT mixamorig:LeftHandMiddle2
									{
										OFFSET 3.699997 0.000000 0.000000
										CHANNELS 3 Xrotation Yrotation Zrotation
										JOINT mixamorig:LeftHandMiddle3
										{
											OFFSET 2.949997 0.000000 0.000000
											CHANNELS 3 Xrotation Yrotation Zrotation
											JOINT mixamorig:LeftHandMiddle4
											{
												OFFSET 2.952896 0.000000 0.000000
												CHANNELS 3 Xrotation Yrotation Zrotation
												End Site
												{
													OFFSET 2.952904 0.000000 0.000165
												}
											}
										}
									}
								}
								JOINT mixamorig:LeftHandRing1
								{
									OFFSET 9.104500 -0.042999 -1.865101
									CHANNELS 6 Xposition Yposition Zposition Xrotation Yrotation Zrotation
									JOINT mixamorig:LeftHandRing2
									{
										OFFSET 3.149994 0.000000 0.000000
										CHANNELS 3 Xrotation Yrotation Zrotation
										JOINT mixamorig:LeftHandRing3
										{
											OFFSET 2.950005 0.000000 0.000000
											CHANNELS 3 Xrotation Yrotation Zrotation
											JOINT mixamorig:LeftHandRing4
											{
												OFFSET 2.644302 0.000000 0.000000
												CHANNELS 3 Xrotation Yrotation Zrotation
												End Site
												{
													OFFSET 2.644302 0.000000 0.000083
												}
											}
										}
									}
								}
								JOINT mixamorig:LeftHandPinky1
								{
									OFFSET 8.077805 -0.486893 -3.806302
									CHANNELS 6 Xposition Yposition Zposition Xrotation Yrotation Zrotation
									JOINT mixamorig:LeftHandPinky2
									{
										OFFSET 3.600006 0.000000 0.000000
										CHANNELS 3 Xrotation Yrotation Zrotation
										JOINT mixamorig:LeftHandPinky3
										{
											OFFSET 2.099998 0.000000 0.000000
											CHANNELS 3 Xrotation Yrotation Zrotation
											JOINT mixamorig:LeftHandPinky4
											{
												OFFSET 2.125496 0.000000 0.000000
												CHANNELS 3 Xrotation Yrotation Zrotation
												End Site
												{
													OFFSET 2.125504 0.000000 -0.001254
												}
											}
										}
									}
								}
							}
						}
					}
				}
			}
		}
	}
	JOINT mixamorig:RightUpLeg
	{
		OFFSET -8.207800 -6.751701 -1.599544
		CHANNELS 6 Xposition Yposition Zposition Xrotation Yrotation Zrotation
		JOINT mixamorig:RightLeg
		{
			OFFSET 0.000004 -44.370152 0.345934
			CHANNELS 3 Xrotation Yrotation Zrotation
			JOINT mixamorig:RightFoot
			{
				OFFSET 0.000004 -44.423664 -3.043535
				CHANNELS 3 Xrotation Yrotation Zrotation
				JOINT mixamorig:RightToeBase
				{
					OFFSET 0.000001 -8.728691 10.710592
					CHANNELS 3 Xrotation Yrotation Zrotation
					JOINT mixamorig:RightToe_End
					{
						OFFSET 0.000000 -0.000665 9.278101
						CHANNELS 3 Xrotation Yrotation Zrotation
						End Site
						{
							OFFSET 0.000000 -0.000665 9.278103
						}
					}
				}
			}
		}
	}
	JOINT mixamorig:LeftUpLeg
	{
		OFFSET 8.207800 -6.751701 -1.599544
		CHANNELS 6 Xposition Yposition Zposition Xrotation Yrotation Zrotation
		JOINT mixamorig:LeftLeg
		{
			OFFSET 0.000004 -44.370037 0.346940
			CHANNELS 3 Xrotation Yrotation Zrotation
			JOINT mixamorig:LeftFoot
			{
				OFFSET 0.000004 -44.423611 -3.044388
				CHANNELS 3 Xrotation Yrotation Zrotation
				JOINT mixamorig:LeftToeBase
				{
					OFFSET 0.000001 -8.728690 10.710592
					CHANNELS 3 Xrotation Yrotation Zrotation
					JOINT mixamorig:LeftToe_End
					{
						OFFSET 0.000000 -0.000680 9.278101
						CHANNELS 3 Xrotation Yrotation Zrotation
						End Site
						{
							OFFSET 0.000000 -0.000680 9.278101
						}
					}
				}
			}
		}
	}
}
MOTION
Frames: 4
Frame Time: 0.033333
0.055072 103.434555 1.510278 -0.013338 2.188911 -0.683338 0.000000 10.181555 0.131524 -6.920091 4.476493 10.214012 4.068403 0.619851 -2.690690 4.119330 0.535540 -2.619160 0.000000 16.740360 -2.049022 -10.229900 5.508133 -0.365783 -0.000001 9.617885 1.684975 -9.931277 -5.652107 -0.700236 0.000001 22.037399 7.501084 0.000003 0.000000 0.000000 -4.570000 11.014858 -2.160839 2.337196 3.935173 1.450482 -51.784930 20.564921 32.676212 0.005909 90.516467 -0.005922 32.799190 -19.040158 -25.076519 -2.464802 -1.573985 2.681903 -3.807633 -3.654495 -8.098723 6.358366 -14.447614 -2.112166 -2.646266 -1.527815 1.527816 -5.504758 -5.510959 -14.718520 -1.994594 -1.151583 1.151566 0.000003 -0.000002 -0.000002 -9.108301 -0.517868 2.259800 0.122999 -3.114440 10.276561 0.043868 -0.638358 7.861199 0.043855 -0.638370 7.861202 0.000001 -0.000002 0.000000 -9.532497 0.000012 -0.000003 -0.391906 -0.305936 10.493850 0.043865 -0.638359 7.861220 0.043860 -0.638370 7.861200 0.000001 -0.000000 0.000001 -9.103602 -0.043100 -1.865107 -0.209461 -1.294667 10.414480 0.175054 -1.266202 15.743386 0.043863 -0.638347 7.861213 0.000000 -0.000001 0.000004 -8.076676 -0.486719 -3.806304 0.069564 -2.729443 5.501357 0.174644 -1.264730 15.724330 0.549840 -2.197138 28.097009 0.000000 -0.000000 -0.000000 4.570400 11.014670 -2.160816 -0.521247 6.168731 -2.462732 25.434914 -59.269820 -38.852691 -0.000007 -25.620277 -0.000009 -30.939213 -3.272267 -5.230885 2.466110 -1.576188 2.681697 -5.154741 3.540951 6.633603 4.712084 18.828518 10.910316 2.647876 -1.528762 1.528764 -7.177174 0.545719 13.400194 1.998921 -1.154084 1.154086 0.000002 0.000004 0.000001 9.109286 -0.518019 2.259901 -1.718267 -4.025842 -20.693796 0.129055 1.224222 -12.036204 0.039518 0.680310 -6.653899 -0.000003 -0.000001 0.000003 9.533395 0.000014 -0.000001 -2.604707 -4.825012 -18.702929 0.148919 1.313945 -12.933569 0.071267 0.912091 -8.937171 0.000000 -0.000001 -0.000001 9.104496 -0.043002 -1.865103 -3.535803 -7.529108 -19.096096 0.148931 1.313953 -12.933541 0.071254 0.912079 -8.937186 0.000004 -0.000001 0.000003 8.077815 -0.486897 -3.806299 -3.535803 -7.529108 -19.096090 0.148932 1.313952 -12.933537 0.071256 0.912082 -8.937181 -0.000002 -0.000001 0.000002 -8.207801 -6.751708 -1.599544 -7.660580 0.572907 1.224824 11.832574 -5.307808 0.062720 -4.183240 2.825707 -0.129273 -0.005448 -0.000001 -0.000000 -0.000000 0.000000 0.000000 8.207801 -6.751688 -1.599544 -9.202106 10.821329 2.626539 13.347637 -3.262811 -0.165655 -4.423382 6.095006 0.217008 -0.031416 -0.000009 -0.001717 -0.000000 0.000002 0.000000 
-0.160281 103.286324 1.295852 0.058196 2.349933 -0.430551 0.000002 10.181558 0.131523 -7.113528 3.354440 8.992270 4.070996 0.478566 -2.286366 4.106167 0.379204 -2.226472 0.000000 16.740368 -2.049017 -10.848116 5.113142 0.552771 0.000001 9.617857 1.684985 -9.810633 -5.840956 -0.366912 -0.000002 22.037369 7.501085 -0.000000 -0.000000 -0.000000 -4.570001 11.014870 -2.160839 2.365404 3.984452 0.324360 -39.762373 28.205060 24.009102 0.000992 93.372900 -0.000948 40.103504 -16.825672 -18.827295 -2.464809 -1.573992 2.681904 -3.807635 -3.654495 -8.098718 6.358365 -14.447609 -2.112161 -2.646277 -1.527836 1.527806 -5.504759 -5.510959 -14.718521 -1.994576 -1.151564 1.151571 0.000002 0.000003 0.000003 -9.108278 -0.517885 2.259802 0.122997 -3.114438 10.276562 0.043867 -0.638356 7.861199 0.043855 -0.638369 7.861202 -0.000001 0.000002 0.000003 -9.532490 0.000008 -0.000004 -0.391908 -0.305933 10.493848 0.043864 -0.638358 7.861224 0.043857 -0.638370 7.861194 -0.000001 0.000000 0.000000 -9.103580 -0.043116 -1.865104 -0.209462 -1.294664 10.414479 0.175056 -1.266205 15.743383 0.043862 -0.638346 7.861209 -0.000000 0.000000 0.000007 -8.076697 -0.486708 -3.806304 0.069562 -2.729441 5.501355 0.174646 -1.264728 15.724330 0.549839 -2.197138 28.097011 -0.000001 -0.000001 -0.000000 4.570400 11.014694 -2.160815 -0.518507 6.254211 -2.701073 27.105372 -57.656120 -38.303793 0.000003 -28.079300 0.000013 -31.410268 -1.550610 -2.723279 2.466098 -1.576198 2.681693 -5.154744 3.540951 6.633600 4.712085 18.828523 10.910309 2.647888 -1.528756 1.528758 -7.177173 0.545721 13.400200 1.998921 -1.154089 1.154085 -0.000000 0.000004 0.000001 9.109293 -0.518016 2.259894 -1.718270 -4.025836 -20.693796 0.129058 1.224216 -12.036198 0.039518 0.680308 -6.653899 -0.000002 -0.000003 -0.000000 9.533395 -0.000005 -0.000005 -2.604712 -4.825012 -18.702928 0.148919 1.313947 -12.933571 0.071264 0.912089 -8.937170 -0.000001 -0.000001 -0.000002 9.104499 -0.043003 -1.865108 -3.535808 -7.529104 -19.096096 0.148928 1.313949 -12.933537 0.071257 0.912084 -8.937183 0.000001 0.000000 0.000000 8.077803 -0.486896 -3.806306 -3.535808 -7.529105 -19.096090 0.148928 1.313947 -12.933539 0.071256 0.912082 -8.937181 0.000002 -0.000001 0.000000 -8.207801 -6.751701 -1.599542 -8.691488 0.562980 1.142410 13.467854 -5.450521 -0.037976 -4.868033 2.797016 -0.119188 -0.005447 -0.000001 -0.000000 -0.000000 -0.000000 -0.000000 8.207800 -6.751694 -1.599544 -9.836675 10.752160 2.558412 14.181471 -3.340836 -0.177757 -4.652161 6.079969 0.160840 -0.030884 0.000002 -0.000995 -0.000000 0.000000 0.000000 
-0.410423 103.203651 1.276577 -0.101960 3.166038 -0.370773 0.000002 10.181532 0.131524 -7.017464 2.764056 8.355724 4.059025 0.393212 -2.122274 4.086921 0.288888 -2.069592 0.000000 16.740364 -2.049017 -11.187282 5.002439 0.513718 -0.000001 9.617839 1.684981 -9.694624 -5.970781 -0.364636 0.000002 22.037384 7.501084 0.000000 -0.000001 -0.000001 -4.570000 11.014877 -2.160839 2.449009 4.224920 -0.196890 -32.404675 30.501316 18.175944 0.000764 94.993137 -0.000747 47.452654 -18.622425 -18.315019 -2.464808 -1.573991 2.681914 -3.807634 -3.654492 -8.098720 6.358366 -14.447619 -2.112165 -2.646266 -1.527815 1.527820 -5.504759 -5.510960 -14.718521 -1.994586 -1.151582 1.151555 0.000001 0.000001 0.000001 -9.108309 -0.517866 2.259797 0.122997 -3.114439 10.276563 0.043868 -0.638359 7.861201 0.043858 -0.638370 7.861199 0.000001 0.000002 0.000002 -9.532513 0.000006 -0.000003 -0.391907 -0.305935 10.493847 0.043866 -0.638360 7.861221 0.043858 -0.638368 7.861196 -0.000001 0.000003 0.000002 -9.103620 -0.043104 -1.865105 -0.209462 -1.294667 10.414478 0.175056 -1.266202 15.743385 0.043861 -0.638348 7.861215 0.000001 -0.000003 0.000000 -8.076695 -0.486705 -3.806299 0.069562 -2.729441 5.501354 0.174646 -1.264728 15.724335 0.549838 -2.197137 28.097011 0.000000 0.000001 0.000004 4.570400 11.014664 -2.160813 -0.518685 6.358794 -2.994245 27.699976 -56.641109 -38.233391 0.000021 -29.376524 0.000003 -30.783943 -0.194541 -0.850236 2.466112 -1.576202 2.681697 -5.154742 3.540953 6.633603 4.712083 18.828521 10.910307 2.647884 -1.528752 1.528755 -7.177173 0.545711 13.400198 1.998925 -1.154085 1.154083 0.000000 0.000000 -0.000000 9.109312 -0.518004 2.259897 -1.718269 -4.025837 -20.693800 0.129059 1.224216 -12.036201 0.039517 0.680307 -6.653906 0.000006 -0.000002 -0.000004 9.533411 -0.000001 -0.000003 -2.604707 -4.825013 -18.702931 0.148919 1.313948 -12.933571 0.071268 0.912090 -8.937174 0.000001 -0.000003 -0.000003 9.104506 -0.042988 -1.865104 -3.535805 -7.529104 -19.096096 0.148930 1.313950 -12.933541 0.071256 0.912080 -8.937183 0.000001 0.000001 -0.000002 8.077799 -0.486897 -3.806308 -3.535803 -7.529104 -19.096092 0.148931 1.313951 -12.933537 0.071254 0.912079 -8.937183 0.000005 0.000002 0.000001 -8.207802 -6.751728 -1.599543 -8.855711 0.518756 1.432832 14.186952 -6.308411 -0.429213 -5.301972 2.789771 0.037218 -0.005449 -0.000001 -0.000000 -0.000000 -0.000000 -0.000000 8.207801 -6.751723 -1.599546 -10.084447 10.708166 2.736286 14.758258 -4.129168 -0.254112 -4.834212 6.051281 0.154568 -0.022917 0.000012 0.002821 -0.000000 0.000002 0.000000 
-0.367734 103.245430 1.462745 -0.309746 4.058245 -0.431080 -0.000001 10.181540 0.131522 -6.560577 3.111263 8.362124 4.039692 0.414669 -2.345342 4.071227 0.318993 -2.291797 -0.000001 16.740355 -2.049015 -10.915283 5.185915 -0.225169 0.000000 9.617864 1.684974 -9.706908 -6.051419 -0.511450 0.000001 22.037384 7.501081 -0.000001 0.000000 0.000000 -4.570001 11.014857 -2.160839 2.465512 4.298755 0.255340 -36.711065 27.602060 20.899032 0.001605 91.824961 -0.001687 45.830446 -20.567704 -23.125906 -2.464796 -1.573988 2.681911 -3.807636 -3.654499 -8.098715 6.358365 -14.447609 -2.112164 -2.646266 -1.527803 1.527812 -5.504760 -5.510959 -14.718523 -1.994580 -1.151580 1.151568 0.000001 -0.000004 0.000002 -9.108316 -0.517868 2.259798 0.122997 -3.114441 10.276563 0.043867 -0.638356 7.861207 0.043856 -0.638369 7.861197 -0.000002 -0.000000 0.000002 -9.532488 0.000008 -0.000001 -0.391908 -0.305935 10.493850 0.043866 -0.638359 7.861222 0.043860 -0.638367 7.861197 -0.000001 -0.000000 0.000001 -9.103590 -0.043094 -1.865103 -0.209462 -1.294670 10.414482 0.175055 -1.266201 15.743383 0.043864 -0.638345 7.861213 -0.000002 -0.000000 0.000002 -8.076692 -0.486723 -3.806301 0.069562 -2.729442 5.501356 0.174646 -1.264730 15.724330 0.549839 -2.197136 28.097008 -0.000000 -0.000000 -0.000000 4.570400 11.014667 -2.160815 -0.517831 6.463336 -3.287513 27.827237 -55.777992 -38.213317 0.000022 -30.763049 0.000019 -29.231512 0.856691 0.359051 2.466093 -1.576190 2.681698 -5.154745 3.540943 6.633601 4.712080 18.828520 10.910308 2.647876 -1.528765 1.528749 -7.177174 0.545712 13.400196 1.998921 -1.154077 1.154078 0.000003 0.000002 0.000001 9.109282 -0.518004 2.259902 -1.718269 -4.025842 -20.693795 0.129063 1.224219 -12.036202 0.039522 0.680313 -6.653901 0.000001 -0.000001 0.000001 9.533392 0.000010 -0.000002 -2.604712 -4.825015 -18.702929 0.148919 1.313946 -12.933569 0.071267 0.912088 -8.937169 0.000000 0.000000 0.000001 9.104496 -0.042986 -1.865104 -3.535806 -7.529110 -19.096096 0.148932 1.313952 -12.933542 0.071253 0.912082 -8.937184 0.000002 -0.000000 -0.000001 8.077792 -0.486892 -3.806303 -3.535806 -7.529110 -19.096089 0.148931 1.313951 -12.933538 0.071250 0.912081 -8.937184 0.000002 0.000001 0.000002 -8.207800 -6.751715 -1.599542 -8.245660 0.501905 1.677613 13.745599 -7.276933 -0.831135 -5.302644 2.817466 0.340070 -0.005446 -0.000001 -0.000000 -0.000000 -0.000000 0.000000 8.207799 -6.751716 -1.599543 -9.747501 10.720248 2.801707 14.564642 -5.040334 -0.340039 -4.809438 6.041068 0.298926 -0.012942 0.000007 0.006287 -0.000000 0.000002 0.000000 
